<svg width="28" height="28" viewBox="0 0 28 28" fill="none" xmlns="http://www.w3.org/2000/svg">
<path d="M13.38 4.01898C12.6431 4.7056 12.0521 5.53361 11.6422 6.4536C11.2323 7.37359 11.0119 8.36673 10.9941 9.37376C10.9763 10.3808 11.1616 11.3811 11.5388 12.315C11.916 13.2488 12.4774 14.0972 13.1896 14.8094C13.9018 15.5216 14.7501 16.083 15.684 16.4602C16.6179 16.8374 17.6182 17.0227 18.6252 17.0049C19.6323 16.9871 20.6254 16.7667 21.5454 16.3568C22.4654 15.9469 23.2934 15.3559 23.98 14.619C23.662 19.854 19.316 24 14.001 24C8.477 24 4 19.523 4 14C4 8.68498 8.146 4.33898 13.38 4.01898Z" fill="white"/>
</svg>
