<svg width="60" height="60" viewBox="0 0 60 60" fill="none" xmlns="http://www.w3.org/2000/svg">
<rect width="60" height="60" rx="30" fill="white"/>
<g clip-path="url(#clip0_114_44)">
<path d="M48.3333 30L44.2666 25.3667L44.8333 19.2333L38.8166 17.8667L35.6666 12.5667L30 15L24.3333 12.5667L21.1833 17.8667L15.1666 19.2167L15.7333 25.35L11.6666 30L15.7333 34.6333L15.1666 40.7833L21.1833 42.15L24.3333 47.45L30 45L35.6666 47.4333L38.8166 42.1333L44.8333 40.7666L44.2666 34.6333L48.3333 30ZM31.6666 38.3333H28.3333V35H31.6666V38.3333ZM31.6666 31.6667H28.3333V21.6667H31.6666V31.6667Z" fill="#FF6262"/>
</g>
<defs>
<clipPath id="clip0_114_44">
<rect width="40" height="40" fill="white" transform="translate(10 10)"/>
</clipPath>
</defs>
</svg>
