<svg width="28" height="28" viewBox="0 0 28 28" fill="none" xmlns="http://www.w3.org/2000/svg">
<path d="M14 21C12.1434 21 10.363 20.2625 9.05021 18.9498C7.73746 17.637 6.99996 15.8565 6.99996 14C6.99996 12.1435 7.73746 10.363 9.05021 9.05027C10.363 7.73752 12.1434 7.00002 14 7.00002C15.8565 7.00002 17.637 7.73752 18.9497 9.05027C20.2625 10.363 21 12.1435 21 14C21 15.8565 20.2625 17.637 18.9497 18.9498C17.637 20.2625 15.8565 21 14 21ZM12.8333 1.16669H15.1666V4.66669H12.8333V1.16669ZM12.8333 23.3334H15.1666V26.8334H12.8333V23.3334ZM4.10079 5.75052L5.75046 4.10085L8.22496 6.57535L6.57529 8.22502L4.10079 5.75052ZM19.775 21.4247L21.4246 19.775L23.8991 22.2495L22.2495 23.8992L19.775 21.4247ZM22.2495 4.09969L23.8991 5.75052L21.4246 8.22502L19.775 6.57535L22.2495 4.10085V4.09969ZM6.57529 19.775L8.22496 21.4247L5.75046 23.8992L4.10079 22.2495L6.57529 19.775ZM26.8333 12.8334V15.1667H23.3333V12.8334H26.8333ZM4.66663 12.8334V15.1667H1.16663V12.8334H4.66663Z" fill="black"/>
</svg>
